<svg width="866" height="744" viewBox="0 0 866 744" fill="none" xmlns="http://www.w3.org/2000/svg">
<g clip-path="url(#clip0_6_6)">
<path d="M617.75 194V62.4C617.75 60.1598 617.75 59.0397 617.314 58.184C616.931 57.4314 616.319 56.8195 615.566 56.436C614.71 56 613.647 56 611.519 56C567.36 56 302.611 56 273.75 56C242.25 56 226.75 71 226.75 113C226.75 155 226.75 125.5 226.75 144.5M617.75 194H633.818C636.069 194 637.194 194 638.052 194.439C638.806 194.825 639.418 195.44 639.801 196.196C640.235 197.056 640.229 198.181 640.218 200.432L638.297 590.657C638.286 592.894 638.28 594.012 637.841 594.864C637.455 595.614 636.841 596.223 636.088 596.603C635.232 597.036 634.114 597.032 631.878 597.026L286.75 596M617.75 194H286.75M286.75 596C249.265 596 228.735 590.045 228.735 539L226.75 144.5M286.75 596V194M567.25 107H286.75M349.25 148H567.25M286.75 194C248.75 194 227.012 187 226.75 144.5" stroke="black" stroke-width="24" stroke-miterlimit="4.62023" stroke-linecap="round" stroke-linejoin="round"/>
<path d="M550.25 395C550.25 398.037 548.63 400.843 546 402.361L417 476.84C414.37 478.358 411.13 478.358 408.5 476.84C405.87 475.322 404.25 472.515 404.25 469.479L404.25 320.521C404.25 317.485 405.87 314.678 408.5 313.16C411.13 311.642 414.37 311.642 417 313.16L546 387.639C548.63 389.157 550.25 391.963 550.25 395Z" fill="black" stroke="black" stroke-width="17" stroke-linejoin="round"/>
<path d="M821.966 659.054V736.145H805.667V659.054H821.966Z" fill="black"/>
<path d="M739.662 736.145H722.196L748.809 659.054H769.813L796.388 736.145H778.922L759.612 676.67H759.01L739.662 736.145ZM738.57 705.843H779.826V718.566H738.57V705.843Z" fill="black"/>
<path d="M678.202 681.225C677.901 678.189 676.609 675.83 674.325 674.148C672.041 672.467 668.942 671.626 665.027 671.626C662.367 671.626 660.121 672.003 658.29 672.756C656.458 673.483 655.052 674.5 654.074 675.805C653.12 677.11 652.643 678.59 652.643 680.246C652.593 681.627 652.882 682.831 653.509 683.86C654.161 684.889 655.052 685.78 656.182 686.533C657.311 687.26 658.616 687.9 660.096 688.452C661.577 688.979 663.158 689.431 664.839 689.808L671.765 691.464C675.128 692.217 678.215 693.22 681.025 694.475C683.836 695.73 686.27 697.273 688.328 699.105C690.386 700.937 691.979 703.095 693.108 705.58C694.263 708.064 694.853 710.912 694.878 714.124C694.853 718.842 693.648 722.933 691.264 726.396C688.905 729.834 685.492 732.506 681.025 734.413C676.584 736.295 671.226 737.237 664.952 737.237C658.729 737.237 653.308 736.283 648.691 734.376C644.098 732.469 640.51 729.645 637.925 725.906C635.366 722.142 634.023 717.487 633.897 711.941H649.669C649.845 714.526 650.585 716.684 651.89 718.415C653.22 720.122 654.99 721.414 657.198 722.293C659.431 723.146 661.953 723.572 664.764 723.572C667.524 723.572 669.921 723.171 671.954 722.368C674.011 721.565 675.605 720.448 676.734 719.018C677.863 717.587 678.428 715.944 678.428 714.087C678.428 712.355 677.914 710.9 676.885 709.72C675.881 708.541 674.4 707.537 672.443 706.709C670.511 705.881 668.139 705.128 665.329 704.45L656.934 702.342C650.435 700.761 645.303 698.29 641.539 694.927C637.775 691.564 635.905 687.035 635.93 681.338C635.905 676.67 637.147 672.593 639.657 669.104C642.191 665.616 645.667 662.893 650.084 660.936C654.5 658.979 659.519 658 665.14 658C670.862 658 675.856 658.979 680.122 660.936C684.413 662.893 687.751 665.616 690.135 669.104C692.519 672.593 693.748 676.633 693.824 681.225H678.202Z" fill="black"/>
<path d="M565.921 736.145V659.054H582.22V693.045H583.236L610.978 659.054H630.515L601.907 693.572L630.853 736.145H611.355L590.238 704.45L582.22 714.237V736.145H565.921Z" fill="black"/>
<path d="M552.734 697.599C552.734 705.985 551.056 713.119 547.701 719.002C544.373 724.884 539.829 729.377 534.07 732.481C528.338 735.56 521.892 737.099 514.734 737.099C507.522 737.099 501.05 735.547 495.318 732.444C489.585 729.34 485.055 724.846 481.726 718.964C478.398 713.082 476.734 705.96 476.734 697.599C476.734 689.214 478.398 682.08 481.726 676.197C485.055 670.315 489.585 665.834 495.318 662.755C501.05 659.651 507.522 658.099 514.734 658.099C521.892 658.099 528.338 659.651 534.07 662.755C539.829 665.834 544.373 670.315 547.701 676.197C551.056 682.08 552.734 689.214 552.734 697.599ZM535.338 697.599C535.338 692.168 534.48 687.587 532.763 683.857C531.072 680.127 528.682 677.299 525.591 675.371C522.5 673.444 518.881 672.48 514.734 672.48C510.586 672.48 506.967 673.444 503.876 675.371C500.786 677.299 498.382 680.127 496.665 683.857C494.974 687.587 494.129 692.168 494.129 697.599C494.129 703.031 494.974 707.612 496.665 711.342C498.382 715.072 500.786 717.9 503.876 719.828C506.967 721.755 510.586 722.719 514.734 722.719C518.881 722.719 522.5 721.755 525.591 719.828C528.682 717.9 531.072 715.072 532.763 711.342C534.48 707.612 535.338 703.031 535.338 697.599Z" fill="black"/>
<path d="M464.734 697.599C464.734 705.985 463.056 713.119 459.701 719.002C456.373 724.884 451.829 729.377 446.07 732.481C440.338 735.56 433.892 737.099 426.734 737.099C419.522 737.099 413.05 735.547 407.318 732.444C401.585 729.34 397.055 724.846 393.726 718.964C390.398 713.082 388.734 705.96 388.734 697.599C388.734 689.214 390.398 682.08 393.726 676.197C397.055 670.315 401.585 665.834 407.318 662.755C413.05 659.651 419.522 658.099 426.734 658.099C433.892 658.099 440.338 659.651 446.07 662.755C451.829 665.834 456.373 670.315 459.701 676.197C463.056 682.08 464.734 689.214 464.734 697.599ZM447.338 697.599C447.338 692.168 446.48 687.587 444.763 683.857C443.072 680.127 440.682 677.299 437.591 675.371C434.5 673.444 430.881 672.48 426.734 672.48C422.586 672.48 418.967 673.444 415.876 675.371C412.786 677.299 410.382 680.127 408.665 683.857C406.974 687.587 406.129 692.168 406.129 697.599C406.129 703.031 406.974 707.612 408.665 711.342C410.382 715.072 412.786 717.9 415.876 719.828C418.967 721.755 422.586 722.719 426.734 722.719C430.881 722.719 434.5 721.755 437.591 719.828C440.682 717.9 443.072 715.072 444.763 711.342C446.48 707.612 447.338 703.031 447.338 697.599Z" fill="black"/>
<path d="M320.334 737.145V658.145H350.954C356.58 658.145 361.273 659.006 365.032 660.729C368.791 662.452 371.616 664.844 373.508 667.904C375.4 670.939 376.346 674.436 376.346 678.396C376.346 681.482 375.749 684.195 374.554 686.536C373.359 688.85 371.716 690.753 369.625 692.245C367.559 693.71 365.194 694.752 362.53 695.369V696.141C365.443 696.269 368.169 697.118 370.708 698.686C373.272 700.255 375.351 702.454 376.944 705.283C378.537 708.086 379.334 711.429 379.334 715.312C379.334 719.504 378.326 723.245 376.309 726.537C374.317 729.803 371.368 732.387 367.459 734.29C363.551 736.193 358.734 737.145 353.008 737.145H320.334ZM336.503 723.49H349.684C354.19 723.49 357.476 722.602 359.543 720.828C361.609 719.028 362.642 716.636 362.642 713.653C362.642 711.467 362.132 709.539 361.111 707.867C360.09 706.196 358.634 704.884 356.742 703.932C354.875 702.981 352.647 702.505 350.058 702.505H336.503V723.49ZM336.503 691.203H348.489C350.705 691.203 352.672 690.804 354.389 690.007C356.132 689.184 357.501 688.027 358.497 686.536C359.518 685.044 360.028 683.257 360.028 681.174C360.028 678.319 359.045 676.018 357.078 674.269C355.136 672.52 352.373 671.646 348.788 671.646H336.503V691.203Z" fill="black"/>
<path d="M238.683 659.054H256.939L274.518 692.254H275.271L292.85 659.054H311.106L282.988 708.892V736.145H266.802V708.892L238.683 659.054Z" fill="black"/>
<path d="M189.062 736.145H171.596L198.209 659.054H219.213L245.788 736.145H228.323L209.012 676.67H208.41L189.062 736.145ZM187.97 705.843H229.226V718.566H187.97V705.843Z" fill="black"/>
<path d="M113.665 736.145V659.054H129.964V722.707H163.014V736.145H113.665Z" fill="black"/>
<path d="M45.0341 736.145V659.054H75.4488C81.2959 659.054 86.2772 660.171 90.3927 662.404C94.5083 664.612 97.6451 667.687 99.8032 671.626C101.986 675.541 103.078 680.058 103.078 685.178C103.078 690.297 101.974 694.814 99.7656 698.729C97.5573 702.643 94.3577 705.692 90.1669 707.876C86.0012 710.059 80.9571 711.151 75.0348 711.151H55.6491V698.089H72.3998C75.5367 698.089 78.1214 697.549 80.1541 696.47C82.2119 695.366 83.7426 693.848 84.7464 691.915C85.7753 689.958 86.2897 687.712 86.2897 685.178C86.2897 682.618 85.7753 680.384 84.7464 678.477C83.7426 676.545 82.2119 675.052 80.1541 673.998C78.0963 672.919 75.4865 672.379 72.3245 672.379H61.3331V736.145H45.0341Z" fill="black"/>
</g>
<defs>
<clipPath id="clip0_6_6">
<rect width="866" height="744" fill="white"/>
</clipPath>
</defs>
</svg>
