<svg width="556" height="684" viewBox="0 0 556 684" fill="none" xmlns="http://www.w3.org/2000/svg">
<path d="M462 211V79.4C462 77.1598 462 76.0397 461.564 75.184C461.181 74.4314 460.569 73.8195 459.816 73.436C458.96 73 457.897 73 455.769 73C411.61 73 146.861 73 118 73C86.5001 73 71 88 71 130C71 172 71 142.5 71 161.5M462 211H478.068C480.319 211 481.444 211 482.302 211.439C483.056 211.825 483.668 212.44 484.051 213.196C484.485 214.056 484.479 215.181 484.468 217.432L482.547 607.657C482.536 609.894 482.53 611.012 482.091 611.864C481.705 612.614 481.091 613.223 480.338 613.603C479.482 614.036 478.364 614.032 476.128 614.026L131 613M462 211H131M131 613C93.515 613 72.985 607.045 72.985 556L71 161.5M131 613V211M411.5 124H131M193.5 165H411.5M131 211C93 211 71.262 204 71 161.5" stroke="black" stroke-width="24" stroke-miterlimit="4.62023" stroke-linecap="round" stroke-linejoin="round"/>
<path d="M394.5 412C394.5 415.037 392.88 417.843 390.25 419.361L261.25 493.84C258.62 495.358 255.38 495.358 252.75 493.84C250.12 492.322 248.5 489.515 248.5 486.479L248.5 337.521C248.5 334.485 250.12 331.678 252.75 330.16C255.38 328.642 258.62 328.642 261.25 330.16L390.25 404.639C392.88 406.157 394.5 408.963 394.5 412Z" fill="black" stroke="black" stroke-width="17" stroke-linejoin="round"/>
</svg>
